# xmcd
#
# Track frame offsets:
#	150
#	12113
#	26700
#	39901
#	53440
#	64988
#	79591
#	91900
#	103433
#	118169
#	135377
#	148010
#	162603
#	176212
#	186998
#	197378
#	207805
#	220784
#	232459
#	242566
#	255265
#	269933
#	283320
#	293890
#	308175
#	318309
#	330324
#	340248
#
# Disc length: 4684 seconds
#
# Revision: 0
# Processed by: cddbd v1.5.2PL0 Copyright (c) Steve Scherf et al.
# Submitted via: dBpowerAMP V4.0
#
DISCID=aa124a1c
DTITLE=Louvin Brothers - Tragic Songs of Life/Satan Is Real
DYEAR=2007
DGENRE=Country
TTITLE0=Kentucky
TTITLE1=I'll Be All Smiles Tonight
TTITLE2=Let Her Go, God Bless Her
TTITLE3=What Is Home Without Love
TTITLE4=A Tiny Broken Heart
TTITLE5=In The Pines
TTITLE6=Alabama
TTITLE7=Katie Dear
TTITLE8=My Brother's Will
TTITLE9=Knoxville Girl
TTITLE10=Take The News To Mother
TTITLE11=Mary Of The Wild Moor
TTITLE12=Satan Is Real
TTITLE13=There Is A Higher Power
TTITLE14=The Christian Life
TTITLE15=The River Of Jordan
TTITLE16=The Kneeling Drunkard's Plea
TTITLE17=Are You Afraid To Die
TTITLE18=He Can Be Found
TTITLE19=Dying From Home, And Lost
TTITLE20=The Drunkard's Doom
TTITLE21=Satan's Jewelled Crown
TTITLE22=The Angels Rejoiced Last Night
TTITLE23=I'm Ready To Go Home
TTITLE24=Blue From Now On
TTITLE25=Red Hen Hop
TTITLE26=Read What's In My Heart
TTITLE27=My Heart Was Trampled On The Street
EXTD=Raven Records, Australia
EXTT0=
EXTT1=
EXTT2=
EXTT3=
EXTT4=
EXTT5=
EXTT6=
EXTT7=
EXTT8=
EXTT9=
EXTT10=
EXTT11=
EXTT12=
EXTT13=
EXTT14=
EXTT15=
EXTT16=
EXTT17=
EXTT18=
EXTT19=
EXTT20=
EXTT21=
EXTT22=
EXTT23=
EXTT24=
EXTT25=
EXTT26=
EXTT27=
PLAYORDER=
